<svg width="40" height="24" viewBox="0 0 40 24" fill="none" xmlns="http://www.w3.org/2000/svg">
<path d="M2.65353 0.137939H37.6302C37.8534 0.141892 38.0735 0.186397 38.2781 0.268827C38.4826 0.351257 38.6676 0.469968 38.8223 0.618311C38.977 0.766653 39.0984 0.941671 39.1797 1.13332C39.261 1.32496 39.3006 1.52939 39.2961 1.73513V21.7007C39.3006 21.9064 39.261 22.1108 39.1797 22.3025C39.0984 22.4941 38.977 22.6691 38.8223 22.8175C38.6676 22.9658 38.4826 23.0845 38.2781 23.167C38.0735 23.2494 37.8534 23.2939 37.6302 23.2979H2.65353C2.43034 23.2939 2.21019 23.2494 2.00565 23.167C1.8011 23.0845 1.61617 22.9658 1.46146 22.8175C1.30674 22.6691 1.18521 22.4941 1.10391 22.3025C1.02261 22.1108 0.983145 21.9064 0.987651 21.7007V1.73513C0.983145 1.52939 1.02261 1.32496 1.10391 1.13332C1.18521 0.941671 1.30674 0.766653 1.46146 0.618311C1.61617 0.469968 1.8011 0.351257 2.00565 0.268827C2.21019 0.186397 2.43034 0.141892 2.65353 0.137939Z" fill="url(#paint0_linear_1_392)"/>
<defs>
<linearGradient id="paint0_linear_1_392" x1="20.1419" y1="23.2979" x2="20.1419" y2="0.137939" gradientUnits="userSpaceOnUse">
<stop stop-color="#E59703"/>
<stop offset="0.231" stop-color="#E59703"/>
<stop offset="0.234" stop-color="white"/>
<stop offset="0.761" stop-color="white"/>
<stop offset="0.766" stop-color="#5457BB"/>
<stop offset="1" stop-color="#5457BB"/>
</linearGradient>
</defs>
</svg>
